<?xml version="1.0" standalone="no"?>
<!DOCTYPE svg PUBLIC "-//W3C//DTD SVG 20010904//EN"
 "http://www.w3.org/TR/2001/REC-SVG-20010904/DTD/svg10.dtd">
<svg version="1.0" xmlns="http://www.w3.org/2000/svg"
 width="500.000000pt" height="500.000000pt" viewBox="0 0 500.000000 500.000000"
 preserveAspectRatio="xMidYMid meet">
<metadata>
Created by potrace 1.11, written by Peter Selinger 2001-2013
</metadata>
<g transform="translate(0.000000,500.000000) scale(0.100000,-0.100000)"
fill="#000000" stroke="none">
<path d="M2135 3751 c-167 -48 -235 -133 -235 -298 -1 -88 -1 -88 -33 -108
-109 -69 -110 -261 -2 -370 51 -50 97 -68 175 -68 51 0 75 6 108 24 l42 24 44
-50 c89 -102 198 -134 297 -86 l46 22 44 -26 c32 -18 59 -25 100 -25 53 0 57
-2 80 -37 44 -67 68 -78 180 -79 65 -1 105 -6 115 -15 9 -7 36 -42 62 -77 40
-56 43 -65 29 -74 -14 -7 -17 -25 -17 -88 l0 -80 -200 0 c-185 0 -200 1 -200
18 0 10 -12 32 -27 50 -63 74 -198 55 -240 -33 l-17 -35 -238 0 -238 0 0 85 0
85 -344 0 -343 0 -7 -46 c-11 -83 -9 -91 24 -97 51 -11 62 -42 61 -174 0 -65
-4 -180 -7 -255 l-7 -138 -158 0 -159 0 0 -100 0 -100 178 0 178 0 13 -36 c17
-46 72 -107 115 -128 19 -9 59 -16 90 -16 99 0 166 42 212 133 l24 47 89 0 88
0 11 -38 c14 -46 72 -109 118 -128 51 -22 160 -18 211 7 43 21 99 86 110 127
5 21 10 22 92 22 l87 0 13 -36 c16 -43 64 -100 102 -120 37 -19 180 -19 218 0
36 19 93 83 110 124 l13 32 89 0 c79 0 89 -2 89 -18 0 -36 56 -108 102 -131
49 -23 128 -28 192 -10 48 13 121 80 138 125 l12 34 78 0 78 0 0 105 0 105
-128 0 -128 0 -32 65 -31 64 66 3 66 3 15 40 c23 61 21 235 -4 305 l-19 55
-137 3 -138 3 0 84 c0 76 -2 85 -19 85 -16 0 -17 4 -8 38 16 62 2 106 -49 150
-42 37 -44 42 -33 68 13 36 4 142 -17 193 -35 85 -94 115 -216 114 l-78 -1 0
47 c0 63 -33 118 -93 155 -42 26 -57 29 -120 29 -40 -1 -91 -8 -115 -16 -41
-16 -42 -16 -58 8 -9 13 -24 27 -34 30 -15 5 -17 15 -12 73 18 252 -210 426
-463 353z"/>
</g>
</svg>
